<svg width="30" height="30" viewBox="0 0 30 30" fill="none" xmlns="http://www.w3.org/2000/svg">
<path fill-rule="evenodd" clip-rule="evenodd" d="M20.1431 6.87598H9.85349C8.21132 6.87598 6.875 8.21221 6.875 9.85446V20.144C6.875 21.7865 8.21132 23.1228 9.85349 23.1228H20.1431C21.7855 23.1228 23.1218 21.7865 23.1218 20.144V9.85446C23.1218 8.21229 21.7855 6.87598 20.1431 6.87598ZM14.9981 20.3476C12.0493 20.3476 9.64984 17.9482 9.64984 14.999C9.64984 12.0502 12.0493 9.65081 14.9981 9.65081C17.9472 9.65081 20.3467 12.0502 20.3467 14.999C20.3467 17.9482 17.9472 20.3476 14.9981 20.3476ZM20.5187 10.7568C19.8206 10.7568 19.2529 10.1891 19.2529 9.49133C19.2529 8.7935 19.8206 8.22581 20.5187 8.22581C21.2165 8.22581 21.7842 8.7935 21.7842 9.49133C21.7842 10.1892 21.2165 10.7568 20.5187 10.7568Z" fill="#7C7C7C"/>
<path fill-rule="evenodd" clip-rule="evenodd" d="M14.9981 11.9111C13.2958 11.9111 11.9095 13.2967 11.9095 14.9991C11.9095 16.7021 13.2958 18.088 14.9981 18.088C16.7011 18.088 18.0864 16.7021 18.0864 14.9991C18.0864 13.2967 16.7011 11.9111 14.9981 11.9111Z" fill="#7C7C7C"/>
</svg>
