<svg width="30" height="30" viewBox="0 0 30 30" fill="none" xmlns="http://www.w3.org/2000/svg">
<path d="M8.93416 15.7341C8.42333 16.7382 9.00333 17.2182 10.3267 18.0382C11.4517 18.7332 13.0058 18.9874 14.0042 19.0891C13.595 19.4824 15.47 17.6791 10.07 22.8732C8.925 23.9707 10.7683 25.7316 11.9125 24.6574L15.01 21.6699C16.1958 22.8107 17.3325 23.9041 18.1075 24.6616C19.2525 25.7399 21.095 23.9941 19.9625 22.8774C19.8775 22.7966 15.765 18.8516 16.0158 19.0932C17.0267 18.9916 18.5575 18.7224 19.6692 18.0424L19.6683 18.0416C20.9917 17.2174 21.5717 16.7382 21.0683 15.7341C20.7642 15.1641 19.9442 14.6874 18.8525 15.5116C18.8525 15.5116 17.3783 16.6407 15.0008 16.6407C12.6225 16.6407 11.1492 15.5116 11.1492 15.5116C10.0583 14.6832 9.235 15.1641 8.93416 15.7341Z" fill="#AB844A"/>
<path d="M15.0002 15.1183C17.8985 15.1183 20.2652 12.8533 20.2652 10.065C20.2652 7.265 17.8985 5 15.0002 5C12.101 5 9.73438 7.265 9.73438 10.065C9.73438 12.8533 12.101 15.1183 15.0002 15.1183ZM15.0002 7.56583C16.4244 7.56583 17.586 8.68333 17.586 10.065C17.586 11.435 16.4244 12.5525 15.0002 12.5525C13.576 12.5525 12.4144 11.435 12.4144 10.065C12.4135 8.6825 13.5752 7.56583 15.0002 7.56583Z" fill="#AB844A"/>
</svg>
