<svg width="30" height="30" viewBox="0 0 30 30" fill="none" xmlns="http://www.w3.org/2000/svg">
<path fill-rule="evenodd" clip-rule="evenodd" d="M22.4917 16.5975C23.1804 17.2694 23.9087 17.902 24.5268 18.6447C24.7999 18.9729 25.0582 19.3115 25.2551 19.6918C25.5346 20.2367 25.2813 20.8337 24.7946 20.8666L21.7698 20.8652C20.9891 20.9294 20.367 20.6146 19.8423 20.0805C19.425 19.6552 19.035 19.2 18.6322 18.7603C18.4683 18.5792 18.295 18.4099 18.089 18.2749C17.6758 18.0071 17.3174 18.0884 17.0812 18.5188C16.841 18.9572 16.7846 19.4439 16.7624 19.9321C16.7295 20.6446 16.5145 20.831 15.7993 20.8653C14.2691 20.9362 12.8179 20.7037 11.4701 19.9334C10.2799 19.2538 9.3588 18.293 8.55691 17.2066C6.99414 15.0886 5.79724 12.7633 4.72258 10.371C4.47968 9.8319 4.65711 9.54298 5.24999 9.53256C6.23834 9.51305 7.2263 9.51542 8.21326 9.53124C8.61474 9.53797 8.88111 9.76742 9.03467 10.1467C9.5688 11.4592 10.2221 12.7082 11.0422 13.8671C11.2616 14.1755 11.4846 14.4826 11.8007 14.7003C12.1511 14.9418 12.4189 14.8629 12.5841 14.4705C12.6893 14.2213 12.7353 13.9562 12.7574 13.6898C12.836 12.7777 12.8455 11.8647 12.7101 10.9553C12.6261 10.3869 12.3047 10.0194 11.7379 9.91188C11.449 9.85676 11.4923 9.75061 11.6314 9.58498C11.8756 9.30047 12.1054 9.12305 12.5606 9.12305H15.9791C16.5183 9.22821 16.6392 9.47105 16.7124 10.013L16.7151 13.812C16.7087 14.0219 16.8203 14.6438 17.1968 14.7815C17.4985 14.8813 17.6994 14.6384 17.8805 14.4469C18.6992 13.5781 19.2833 12.5509 19.8053 11.488C20.0364 11.0207 20.236 10.5353 20.4302 10.0495C20.5733 9.69001 20.7963 9.51298 21.2018 9.51938L24.493 9.5234C24.59 9.5234 24.6899 9.5234 24.7856 9.53916C25.3392 9.63489 25.4914 9.87377 25.3194 10.4156C25.0506 11.2645 24.5242 11.9733 24.0113 12.6832C23.4613 13.443 22.8761 14.1764 22.3303 14.9403C21.8317 15.6398 21.871 15.9915 22.4917 16.5975Z" fill="#7C7C7C"/>
</svg>
